<svg {{ with .size }} height="{{ . }}" {{ end }} style="enable-background:new 0 0 270 270;" version="1.1" viewBox="0 0 12 9" width="{{ .size }}" xml:space="preserve" xmlns="http://www.w3.org/2000/svg">
<style type="text/css">
	.st0{fill:#d7f7ff;}
    .st1{fill:#0093dd;}
</style>
<g>
	<path class="st0" d="M 7.8,0 C 5.4,0 3.5,1.9 3.5,4.3 3.5,6.7 5.4,8.6 7.8,8.6 10.2,8.6 12,6.6 12,4.3 12,2 10.1,0 7.8,0 Z m 0,7.9 c -2,0 -3.6,-1.6 -3.6,-3.6 0,-2 1.6,-3.6 3.6,-3.6 2,0 3.6,1.6 3.6,3.6 0,0 0,0 0,0 0,2 -1.6,3.6 -3.6,3.6 z"/>
	<path class="st1" d="M 6.3,1 C 4.5,1.8 3.6,4 4.5,5.8 4.9,6.6 5.5,7.3 6.3,7.6 8.1,6 8.3,3.2 6.7,1.3 6.6,1.2 6.4,1.1 6.3,1 Z"/>
	<path class="st1" d="m 3.5,4.3 c 0,-1 0.3,-1.9 1,-2.7 C 4.1,1.4 3.7,1.3 3.2,1.3 c -1.6,0 -2.9,1.3 -2.9,3 0,1.7 1.3,3 2.9,3 C 3.6,7.3 4,7.2 4.4,7 3.8,6.2 3.5,5.3 3.5,4.3 Z"/>
</g>
</svg>
