<svg {{ with .size }} height="{{ . }}" {{ end }} style="enable-background:new 0 0 270 270;" version="1.1" viewBox="0, 0, 400,396.3870967741936" width="{{ .size }}" xml:space="preserve" xmlns="http://www.w3.org/2000/svg">
<g id="svgg">
    <path id="path0"
          d="M185.032 2.406 C 71.903 11.617,-8.947 105.389,0.494 216.438 C 10.478 333.885,120.901 416.028,237.161 392.494 C 346.783 370.304,415.853 259.776,388.349 150.557 C 365.439 59.584,276.724 -5.060,185.032 2.406 M197.415 26.710 C 192.710 38.122,193.416 43.336,202.957 67.613 C 214.579 97.187,215.323 100.110,217.543 124.903 C 219.738 149.424,220.745 152.120,221.687 136.000 C 223.766 100.390,231.909 72.044,243.782 59.083 L 246.133 56.516 245.118 59.829 C 240.903 73.592,244.248 92.307,254.212 110.710 C 267.188 134.678,270.446 144.060,272.040 162.065 C 273.908 183.144,269.281 201.280,258.056 216.880 C 254.032 222.472,253.985 222.576,255.613 222.211 C 267.991 219.436,318.016 209.442,318.246 209.698 C 318.630 210.124,314.742 219.844,311.803 225.806 C 306.581 236.402,300.435 245.469,291.952 255.097 L 288.882 258.581 197.105 258.581 L 105.328 258.581 102.713 255.438 C 94.693 245.801,87.267 234.936,82.969 226.553 C 80.357 221.456,75.658 210.106,76.013 209.750 C 76.172 209.591,94.319 213.435,109.161 216.772 C 119.298 219.050,133.659 221.935,134.863 221.935 C 135.797 221.935,135.770 221.807,134.520 220.258 C 118.132 199.964,113.347 176.020,120.230 148.757 C 121.691 142.969,123.115 138.689,131.856 113.806 C 138.671 94.406,140.256 81.912,137.054 72.836 L 136.321 70.759 137.584 71.239 C 148.453 75.372,156.702 95.291,158.258 121.161 C 158.670 128.024,158.690 128.037,161.435 123.226 C 169.286 109.469,173.854 90.994,174.969 68.491 C 175.810 51.494,179.680 40.582,188.030 31.654 C 191.860 27.559,198.510 24.056,197.415 26.710 M289.548 292.645 L 289.548 309.161 197.161 309.161 L 104.774 309.161 104.774 292.645 L 104.774 276.129 197.161 276.129 L 289.548 276.129 289.548 292.645 M252.903 326.731 C 252.903 353.911,217.878 375.990,184.901 369.598 C 160.772 364.920,141.419 346.140,141.419 327.401 L 141.419 325.161 197.161 325.161 L 252.903 325.161 252.903 326.731 "
          stroke="none" fill="#FF0000" fill-rule="evenodd"></path>
</g>
</svg>
